<?xml version="1.0" encoding="utf-8"?>
<!-- Generator: Adobe Illustrator 19.0.0, SVG Export Plug-In . SVG Version: 6.00 Build 0)  -->
<svg version="1.1" id="レイヤー_1" xmlns="http://www.w3.org/2000/svg" xmlns:xlink="http://www.w3.org/1999/xlink" x="0px"
	 y="0px" viewBox="0 0 100 100" style="enable-background:new 0 0 100 100;" xml:space="preserve">
<g>
	<path d="M92.8,67.3c-0.3,6.9-1.9,12.9-6.9,18c-5,5-11.1,6.6-18,6.9c-5.9,0.3-11.8,0.3-17.7,0.3s-11.8,0.1-17.7-0.3
		c-6.9-0.3-12.9-1.9-18-6.9S8,74.2,7.6,67.3c-0.3-5.9-0.3-11.8-0.3-17.7S7.3,37.8,7.6,31.9C8,25.1,9.5,19,14.5,14s11.1-6.6,18-6.9
		c5.9-0.3,11.8-0.3,17.7-0.3S62,6.7,67.9,7c6.9,0.3,12.9,1.9,18,6.9c5,5,6.6,11.1,6.9,18c0.3,5.9,0.3,11.8,0.3,17.7
		S93.1,61.4,92.8,67.3z M24.9,16.2c-2,0.8-3.4,1.7-4.9,3.2c-1.5,1.5-2.5,3-3.2,4.9C14.5,30,15,43.4,15,49.6s-0.5,19.6,1.7,25.3
		c0.8,2,1.7,3.4,3.2,4.9c1.5,1.5,3,2.5,4.9,3.2c5.6,2.2,19,1.7,25.3,1.7s19.6,0.5,25.3-1.7c2-0.8,3.4-1.7,4.9-3.2s2.5-3,3.2-4.9
		c2.2-5.6,1.7-19,1.7-25.3s0.5-19.6-1.7-25.3c-0.8-2-1.7-3.4-3.2-4.9c-1.5-1.5-3-2.5-4.9-3.2c-5.6-2.2-19-1.7-25.3-1.7
		S30.6,14,24.9,16.2z M50.2,71.6c-12.2,0-22-9.8-22-22c0-12.2,9.8-22,22-22c12.2,0,22,9.8,22,22C72.2,61.8,62.4,71.6,50.2,71.6z
		 M50.2,35.3c-7.9,0-14.3,6.4-14.3,14.3s6.4,14.3,14.3,14.3s14.3-6.4,14.3-14.3S58.1,35.3,50.2,35.3z M73.1,31.9
		c-2.8,0-5.1-2.3-5.1-5.1s2.3-5.1,5.1-5.1c2.8,0,5.1,2.3,5.1,5.1S75.9,31.9,73.1,31.9z"/>
</g>
</svg>
