<?xml version="1.0" encoding="utf-8"?>
<!-- Generator: Adobe Illustrator 19.0.0, SVG Export Plug-In . SVG Version: 6.00 Build 0)  -->
<svg version="1.1" id="レイヤー_1" xmlns="http://www.w3.org/2000/svg" xmlns:xlink="http://www.w3.org/1999/xlink" x="0px"
	 y="0px" viewBox="0 0 100 100" style="enable-background:new 0 0 100 100;" xml:space="preserve">
<g>
	<path d="M86.4,31.7c0.1,0.8,0.1,1.6,0.1,2.3c0,23.8-18.1,51.3-51.3,51.3c-10.2,0-19.7-3-27.7-8.1c1.5,0.2,2.8,0.2,4.4,0.2
		c8.4,0,16.2-2.8,22.4-7.7c-7.9-0.2-14.6-5.4-16.9-12.5c1.1,0.2,2.2,0.3,3.4,0.3c1.6,0,3.2-0.2,4.7-0.6C17.2,55.3,11,48,11,39.2
		c0-0.1,0-0.2,0-0.2c2.4,1.3,5.2,2.2,8.1,2.3c-4.9-3.2-8-8.8-8-15c0-3.3,0.9-6.4,2.5-9.1c8.9,10.9,22.2,18.1,37.2,18.9
		c-0.3-1.3-0.4-2.7-0.4-4.1c0-9.9,8-18,18-18c5.2,0,9.9,2.2,13.2,5.7c4.1-0.8,8-2.3,11.4-4.4c-1.3,4.2-4.2,7.7-7.9,9.9
		c3.6-0.4,7.1-1.4,10.4-2.8C92.9,26,89.9,29.1,86.4,31.7z"/>
</g>
</svg>
