<?xml version="1.0" encoding="utf-8"?>
<!-- Generator: Adobe Illustrator 19.0.0, SVG Export Plug-In . SVG Version: 6.00 Build 0)  -->
<svg version="1.1" id="レイヤー_1" xmlns="http://www.w3.org/2000/svg" xmlns:xlink="http://www.w3.org/1999/xlink" x="0px"
	 y="0px" viewBox="0 0 300 60" style="enable-background:new 0 0 300 60;" xml:space="preserve">
<g id="XMLID_102_">
	<path id="XMLID_103_" d="M24.5,19.5c0-1.2,0-2.9,0-5.3c-2.3,0-5.8,0-10.6,0c0,2.3,0,5.8,0,10.6c3.5,0,8.8,0,15.8,0
		c1.4,0,2.7,0.5,3.7,1.5c1,1,1.5,2.3,1.5,3.7c0,4.7,0,11.7,0,21c0,1.5-0.5,2.7-1.5,3.7c-1,1-2.3,1.6-3.7,1.6c-4.7,0-11.7,0-21,0
		c-1.5,0-2.7-0.5-3.7-1.6c-1-1-1.6-2.2-1.6-3.7c0-2.3,0-5.8,0-10.5c2.3,0,5.8,0,10.5,0c0,1.1,0,2.9,0,5.3c2.4,0,5.9,0,10.6,0
		c0-2.4,0-5.9,0-10.6c-3.5,0-8.8,0-15.8,0c-1.5,0-2.7-0.5-3.7-1.5c-1-1-1.6-2.3-1.6-3.8c0-2.3,0-5.3,0-8.8c0-3.5,0-7.6,0-12.3
		C3.4,7.5,4,6.3,5,5.3c1-1,2.2-1.5,3.7-1.5c4.7,0,11.7,0,21,0c1.4,0,2.7,0.5,3.7,1.5c1,1,1.5,2.3,1.5,3.7c0,2.4,0,5.9,0,10.6
		C32.6,19.5,29.1,19.5,24.5,19.5z"/>
	<path id="XMLID_105_" d="M40.8,3.8c1.8,0,5.3,0,10.5,0c0,6.6,0,19.7,0,39.4c0,2.2,0,6.6,0,13.1c-1.7,0-5.2,0-10.5,0
		c0-4.4,0-10.9,0-19.7C40.8,27.9,40.8,16.9,40.8,3.8z"/>
	<path id="XMLID_107_" d="M88.7,14.2c-5.2,0-8.7,0-10.5,0c0,21.1,0,35.1,0,42.1c-5.3,0-8.8,0-10.6,0c0-21,0-35,0-42.1
		c-5.2,0-8.7,0-10.5,0c0-2.6,0-4.8,0-6.6c0-1.8,0-3.1,0-3.9c15.8,0,26.3,0,31.5,0C88.7,8.4,88.7,11.9,88.7,14.2z"/>
	<path id="XMLID_109_" d="M105.1,14.2c0,4.7,0,8.2,0,10.6c7,0,12.3,0,15.8,0c0,4.7,0,8.2,0,10.5c-7,0-12.3,0-15.8,0
		c0,4.7,0,8.2,0,10.6c9.4,0,16.4,0,21,0c0,4.7,0,8.2,0,10.5c-9.3,0-16.3,0-21,0c-4.7,0-8.2,0-10.5,0c0-2.3,0-4.4,0-6.1
		c0-1.8,0-3.2,0-4.3c0-5.3,0-8.8,0-10.6c0-5.3,0-8.8,0-10.5c0-5.3,0-8.8,0-10.6c0-5.2,0-8.7,0-10.5c5.3,0,8.8,0,10.5,0
		c10.6,0,17.6,0,21,0c0,5.2,0,8.7,0,10.5C116.8,14.2,109.8,14.2,105.1,14.2z"/>
	<path id="XMLID_111_" d="M163.5,9c0,10.6,0,26.3,0,47.3c-2.3,0-5.8,0-10.5,0c0-9.4,0-23.4,0-42.1c-2.3,0-5.8,0-10.6,0
		c0,9.4,0,23.4,0,42.1c-2.3,0-5.8,0-10.5,0c0-5.8,0-13.1,0-21.9c0-8.7,0-19,0-30.7c2.3,0,5.8,0,10.5,0c3.5,0,8.8,0,15.8,0
		c1.4,0,2.7,0.5,3.7,1.5C163,6.3,163.5,7.5,163.5,9z"/>
	<path id="XMLID_113_" d="M200.9,56.3c-2.3,0-5.8,0-10.5,0c0-4.7,0-11.7,0-21c-2.3,0-5.8,0-10.6,0c0,4.7,0,11.7,0,21
		c-2.3,0-5.8,0-10.5,0c0-3.9,0-9.9,0-17.8c0-3.3,0-7.4,0-12.3c0-4.9,0-10.7,0-17.3c0-1.4,0.5-2.7,1.6-3.7c1-1,2.2-1.5,3.7-1.5
		c4.7,0,11.7,0,21,0c1.4,0,2.7,0.5,3.7,1.5c1,1,1.5,2.3,1.5,3.7C200.9,19.5,200.9,35.3,200.9,56.3z M190.4,24.8c0-0.4,0-1,0-1.9
		c0-1.9,0-4.8,0-8.7c-2.3,0-5.8,0-10.6,0c0,2.3,0,5.8,0,10.6C182.2,24.8,185.7,24.8,190.4,24.8z"/>
	<path id="XMLID_116_" d="M259.3,9c0,10.6,0,26.3,0,47.3c-2.3,0-5.8,0-10.5,0c0-9.4,0-23.4,0-42.1c-2.3,0-5.8,0-10.6,0
		c0,9.4,0,23.4,0,42.1c-2.3,0-5.8,0-10.5,0c0-9.4,0-23.4,0-42.1c-2.3,0-5.8,0-10.6,0c0,9.4,0,23.4,0,42.1c-2.3,0-5.8,0-10.5,0
		c0-3.9,0-9.9,0-17.8c0-3.3,0-7.4,0-12.3c0-4.9,0-10.7,0-17.3c0-1.4,0.5-2.7,1.6-3.7c1-1,2.2-1.5,3.7-1.5c3.5,0,8.7,0,15.8,0
		c1.5,0,2.7,0.5,3.7,1.5c1,1,1.6,2.3,1.6,3.7c0-1.4,0.5-2.7,1.5-3.7c1-1,2.3-1.5,3.7-1.5c3.5,0,8.8,0,15.8,0c1.4,0,2.7,0.5,3.7,1.5
		C258.8,6.3,259.3,7.5,259.3,9z"/>
	<path id="XMLID_118_" d="M275.6,14.2c0,4.7,0,8.2,0,10.6c7,0,12.3,0,15.8,0c0,4.7,0,8.2,0,10.5c-7,0-12.3,0-15.8,0
		c0,4.7,0,8.2,0,10.6c9.4,0,16.4,0,21,0c0,4.7,0,8.2,0,10.5c-9.3,0-16.3,0-21,0c-4.7,0-8.2,0-10.5,0c0-2.3,0-4.4,0-6.1
		c0-1.8,0-3.2,0-4.3c0-5.3,0-8.8,0-10.6c0-5.3,0-8.8,0-10.5c0-5.3,0-8.8,0-10.6c0-5.2,0-8.7,0-10.5c5.3,0,8.8,0,10.5,0
		c10.6,0,17.6,0,21,0c0,5.2,0,8.7,0,10.5C287.4,14.2,280.4,14.2,275.6,14.2z"/>
</g>
</svg>
